# xmcd CD database file
#
# Track frame offsets:
#	150
#	15505
#	42275
#	57980
#	80443
#	93545
#	106963
#	120670
#	139170
#	155258
#
# Disc length: 2336 seconds
#
# Revision: 3
# Processed by: cddbd v1.5.2PL0 Copyright (c) Steve Scherf et al.
# Submitted via: CDex 1.51
#
DISCID=79091e0a
DTITLE=David Bromberg Band - Midnight On The Water
DYEAR=1975
DGENRE=Rock
TTITLE0=(What A) Wonderful World
TTITLE1=Yankee's Revenge (Medley)
TTITLE2=I Like To Sleep Late In The Morning
TTITLE3=Nobody's
TTITLE4=Don't Put That Thing On Me
TTITLE5=Mr. Blue
TTITLE6=Dark Hollow
TTITLE7=If I Get Lucky
TTITLE8=The Joke's On Me
TTITLE9=Midnight On The Water
EXTD=YEAR: 1975
EXTT0=
EXTT1=
EXTT2=
EXTT3=
EXTT4=
EXTT5=
EXTT6=
EXTT7=
EXTT8=
EXTT9=
PLAYORDER=
